<?xml version="1.0" encoding="UTF-8" standalone="no"?>
<svg
   xmlns:dc="http://purl.org/dc/elements/1.1/"
   xmlns:cc="http://creativecommons.org/ns#"
   xmlns:rdf="http://www.w3.org/1999/02/22-rdf-syntax-ns#"
   xmlns:svg="http://www.w3.org/2000/svg"
   xmlns="http://www.w3.org/2000/svg"
   xmlns:sodipodi="http://sodipodi.sourceforge.net/DTD/sodipodi-0.dtd"
   xmlns:inkscape="http://www.inkscape.org/namespaces/inkscape"
   width="500"
   height="500"
   viewBox="0 0 132.29166 132.29167"
   version="1.1"
   id="svg870"
   sodipodi:docname="vi.svg"
   inkscape:version="1.0.2 (1.0.2+r75+1)">
  <sodipodi:namedview
     pagecolor="#ffffff"
     bordercolor="#666666"
     borderopacity="1"
     objecttolerance="10"
     gridtolerance="10"
     guidetolerance="10"
     inkscape:pageopacity="0"
     inkscape:pageshadow="2"
     inkscape:window-width="1542"
     inkscape:window-height="850"
     id="namedview11"
     showgrid="false"
     inkscape:zoom="1.42"
     inkscape:cx="250"
     inkscape:cy="165.49296"
     inkscape:window-x="58"
     inkscape:window-y="24"
     inkscape:window-maximized="1"
     inkscape:current-layer="svg870"
     inkscape:document-rotation="0" />
  <defs
     id="defs864">
    <rect
       x="-12.808653"
       y="37.029092"
       width="15.52261"
       height="31.760541"
       id="rect837" />
    <rect
       x="-12.808653"
       y="37.029091"
       width="15.52261"
       height="31.760542"
       id="rect837-1" />
    <rect
       x="-12.808653"
       y="37.029091"
       width="15.52261"
       height="31.760542"
       id="rect850" />
    <rect
       x="-12.808653"
       y="37.029091"
       width="15.52261"
       height="31.760542"
       id="rect837-1-1" />
    <rect
       x="-12.808653"
       y="37.029091"
       width="15.52261"
       height="31.760542"
       id="rect890" />
  </defs>
  <metadata
     id="metadata867">
    <rdf:RDF>
      <cc:Work
         rdf:about="">
        <dc:format>image/svg+xml</dc:format>
        <dc:type
           rdf:resource="http://purl.org/dc/dcmitype/StillImage" />
        <dc:title />
      </cc:Work>
    </rdf:RDF>
  </metadata>
  <path
     id="path945"
     style="font-style:normal;font-variant:normal;font-weight:bold;font-stretch:normal;font-size:9.87778px;line-height:1.25;font-family:'Noto Sans';-inkscape-font-specification:'Noto Sans, Bold';font-variant-ligatures:normal;font-variant-caps:normal;font-variant-numeric:normal;font-variant-east-asian:normal;white-space:pre;fill:#00ffff;fill-opacity:1;stroke:none;stroke-width:9.33986"
     d="m 95.714566,32.808333 q 3.04452,0 5.258724,1.476092 2.21421,1.383843 2.21421,5.258601 0,3.782497 -2.21421,5.258587 -2.214204,1.476102 -5.258724,1.476102 -3.13679,0 -5.350991,-1.476102 -2.121941,-1.47609 -2.121941,-5.258587 0,-3.874758 2.121941,-5.258601 2.214201,-1.476092 5.350991,-1.476092 z m 6.827124,19.742793 V 102.92291 H 88.795186 V 52.551126 Z M 48.293905,102.92291 29.104165,52.551126 h 14.392309 l 9.687131,28.691623 q 0.830324,2.583169 1.291618,5.350852 0.553581,2.767685 0.645768,4.981836 h 0.369023 q 0.276742,-4.981836 2.02969,-10.332688 l 9.687121,-28.691623 h 14.392312 l -19.18974,50.371784 z" />
</svg>
