<?xml version="1.0" encoding="UTF-8" standalone="no"?>
<svg
   xmlns:dc="http://purl.org/dc/elements/1.1/"
   xmlns:cc="http://creativecommons.org/ns#"
   xmlns:rdf="http://www.w3.org/1999/02/22-rdf-syntax-ns#"
   xmlns:svg="http://www.w3.org/2000/svg"
   xmlns="http://www.w3.org/2000/svg"
   xmlns:sodipodi="http://sodipodi.sourceforge.net/DTD/sodipodi-0.dtd"
   xmlns:inkscape="http://www.inkscape.org/namespaces/inkscape"
   id="svg"
   version="1.1"
   width="600"
   height="600"
   viewBox="0 0 600 600.00002"
   sodipodi:docname="us.svg"
   inkscape:version="1.0.2 (1.0.2+r75+1)">
  <metadata
     id="metadata13">
    <rdf:RDF>
      <cc:Work
         rdf:about="">
        <dc:format>image/svg+xml</dc:format>
        <dc:type
           rdf:resource="http://purl.org/dc/dcmitype/StillImage" />
        <dc:title />
      </cc:Work>
    </rdf:RDF>
  </metadata>
  <defs
     id="defs11" />
  <sodipodi:namedview
     pagecolor="#ffffff"
     bordercolor="#666666"
     borderopacity="1"
     objecttolerance="10"
     gridtolerance="10"
     guidetolerance="10"
     inkscape:pageopacity="0"
     inkscape:pageshadow="2"
     inkscape:window-width="1542"
     inkscape:window-height="850"
     id="namedview9"
     showgrid="false"
     inkscape:zoom="0.50383782"
     inkscape:cx="150.20724"
     inkscape:cy="197.08237"
     inkscape:window-x="58"
     inkscape:window-y="24"
     inkscape:window-maximized="1"
     inkscape:current-layer="svg"
     inkscape:document-rotation="0" />
  <g
     id="g996"
     transform="matrix(0.83333333,0,0,0.83354225,-74.999998,49.998376)">
    <path
       id="path0"
       style="fill:#f44434;fill-opacity:1;stroke-width:2.3459"
       d="M 449.20312,0.00195313 A 300,300 0 0 0 429.81055,0.68164062 V 33.333984 66.666016 h 208.75 A 300,300 0 0 0 450.72852,0.00195313 Z M 429.81055,133.93555 v 32.73242 32.73242 H 664.625 732.62891 A 300,300 0 0 0 699.84375,133.93555 H 664.625 Z m 0,133.33203 V 300 332.73242 H 664.625 748.20898 A 300,300 0 0 0 750,300 300,300 0 0 0 748.20898,267.26758 H 664.625 Z M 450.36914,400 c -108.76168,0 -205.19751,0.0396 -283.17578,0.0977 a 300,300 0 0 0 32.96289,65.96679 H 450 699.84375 A 300,300 0 0 0 732.8418,400 Z M 261.43945,533.33398 a 300,300 0 0 0 169.58008,66.06446 H 450 468.97461 A 300,300 0 0 0 638.56055,533.33398 H 450 Z" />
    <path
       id="path1"
       style="fill:#ededf4;fill-opacity:1;stroke-width:2.3459"
       d="m 291.76562,45.125 a 300,300 0 0 0 -0.0586,0.03711 c -0.26662,0.254163 -1.66628,3.177005 -3.27148,6.857422 -1.71327,3.928199 -3.81307,8.794863 -4.66407,10.816407 -1.7628,4.194641 -0.32384,3.593078 -13.68554,5.714843 -4.64001,0.738218 -8.43555,1.577283 -8.43555,1.863281 0,0.285999 3.17564,4.040091 7.05469,8.339844 8.27368,9.171501 7.86752,7.652129 5.66797,21.248043 -0.94782,5.85441 -1.63677,10.73326 -1.53321,10.84571 0.10357,0.11244 2.66862,-1.27414 5.70118,-3.07813 3.03255,-1.80399 7.27711,-4.25926 9.43164,-5.45703 l 3.92187,-2.17969 9.07813,5.41016 c 10.76816,6.41174 10.03826,7.13205 7.74414,-7.644531 l -1.62891,-10.509766 2.86133,-3.302734 c 1.57369,-1.818657 4.94035,-5.634171 7.48437,-8.484376 2.54401,-2.850205 4.4132,-5.324492 4.1543,-5.498046 -0.26116,-0.173555 -4.95218,-1.045283 -10.42969,-1.9375 -5.47526,-0.889773 -9.99267,-1.660096 -10.0332,-1.708985 -0.0428,-0.04889 -2.11821,-4.818532 -4.61719,-10.599609 -2.49154,-5.769053 -4.61922,-10.58362 -4.74219,-10.732422 z m 76.72461,0.380859 c -0.22063,-0.244443 -2.48273,4.416966 -5.03125,10.359375 -2.54852,5.94241 -4.83498,10.800782 -5.07812,10.800782 -0.98609,0 -19.0679,3.05091 -19.80859,3.341796 -0.54932,0.21511 1.01242,2.324611 4.98828,6.744141 3.18114,3.53709 6.5791,7.37894 7.54492,8.535156 l 1.75976,2.101563 -1.65429,11.060547 c -0.90954,6.081741 -1.58194,11.405231 -1.49414,11.828121 0.10582,0.49621 3.31808,-1.13636 9.01172,-4.57812 10.4282,-6.301744 8.98683,-6.02351 14.42382,-2.80664 2.41118,1.4251 6.60189,3.90768 9.3125,5.51367 l 4.92969,2.91797 -0.31445,-1.75781 c -0.17335,-0.96555 -1.01363,-6.42605 -1.86914,-12.12891 l -1.55274,-10.371094 7.69532,-8.373047 c 5.18933,-5.644189 7.4326,-8.469957 6.89453,-8.677734 -0.43901,-0.168665 -5.14222,-0.999438 -10.45313,-1.847656 -5.30866,-0.848217 -9.75012,-1.647789 -9.86719,-1.777344 -0.11932,-0.129555 -2.20196,-4.78121 -4.6289,-10.339844 -2.42695,-5.556189 -4.59022,-10.302924 -4.8086,-10.544922 z m 61.32032,21.761719 v 33.035152 33.03125 H 664.625 699.44336 A 300,300 0 0 0 639.30078,67.267578 Z M 227.08984,99.224609 a 300,300 0 0 0 -6.28906,7.210941 c 4.31056,2.52357 7.76698,4.36883 7.875,4.17187 0.11932,-0.21755 -0.49065,-4.72051 -1.35742,-10.00781 -0.0863,-0.52728 -0.1477,-0.890329 -0.22852,-1.375001 z m 161.65039,34.710941 c -0.11256,0 -2.16316,4.52684 -4.55859,10.05859 -5.43924,12.56681 -3.84316,11.2159 -15.49609,13.125 -5.47751,0.89711 -10.06444,1.72788 -10.19727,1.84766 -0.13058,0.11733 3.18887,3.97478 7.38086,8.57031 6.90937,7.56796 7.59391,8.51128 7.3125,10.04883 -1.03112,5.60507 -3.15805,20.78673 -3.01172,21.48828 0.13058,0.62088 0.9542,0.33822 3.2168,-1.11133 1.67499,-1.07066 5.82148,-3.54836 9.21875,-5.50391 l 6.17773,-3.55859 2.39844,1.33789 c 1.31704,0.73578 5.50638,3.21348 9.30664,5.50391 3.80251,2.29043 6.98115,4.09044 7.06445,4 0.0833,-0.0905 -0.59873,-5.21112 -1.51953,-11.38086 -0.91855,-6.16729 -1.66165,-11.54589 -1.65039,-11.94922 0.009,-0.40578 3.4047,-4.51967 7.54492,-9.14453 l 7.52539,-8.4082 -4.08789,-0.66797 c -2.24683,-0.36667 -7.03983,-1.1448 -10.64648,-1.72657 l -6.56055,-1.05859 -1.33203,-3.27148 c -2.34139,-5.74686 -7.87431,-18.19922 -8.08594,-18.19922 z m -76.51171,0.0605 c -0.12608,-0.13689 -1.71938,3.15306 -3.54297,7.3086 -1.82358,4.15797 -3.91481,9.03342 -4.64649,10.83008 l -1.33203,3.27148 -6.56055,1.05859 c -3.6089,0.58177 -8.4013,1.3599 -10.65039,1.72657 l -4.08593,0.66797 7.52734,8.4082 c 4.13796,4.62486 7.53171,8.73875 7.54297,9.14453 0.009,0.40333 -0.73381,5.78193 -1.65235,11.94922 -0.91854,6.16974 -1.60087,11.29041 -1.51757,11.38086 0.0833,0.0904 3.26224,-1.70957 7.0625,-4 3.80251,-2.29043 7.99126,-4.76813 9.31054,-5.50391 l 2.39649,-1.33789 6.17578,3.55859 c 3.39727,1.95555 7.54601,4.43325 9.21875,5.50391 2.2626,1.44955 3.09042,1.73221 3.21875,1.11133 0.14858,-0.70155 -1.9806,-15.88321 -3.01172,-21.48828 -0.28366,-1.53755 0.40344,-2.48087 7.31055,-10.04883 4.19425,-4.59553 7.51563,-8.45298 7.38281,-8.57031 -0.13283,-0.11978 -4.72201,-0.95447 -10.19727,-1.85157 -11.77676,-1.9311 -9.87459,-0.34649 -15.28906,-12.73242 -2.4382,-5.57574 -4.53633,-10.24983 -4.66015,-10.38672 z m -81.68555,0.2461 c -0.33548,-0.0516 -1.34608,1.70864 -2.41406,4.23633 -1.10766,2.62043 -3.19391,7.49587 -4.63477,10.83007 l -2.62109,6.06641 -7.68555,1.29297 c -4.22576,0.71133 -8.86519,1.46556 -10.31055,1.67578 -3.34774,0.484 -3.78122,-0.37787 4.75586,9.44141 l 7.38086,8.49218 -1.77344,11.41016 c -0.97708,6.2773 -1.67129,11.54131 -1.54296,11.69531 0.23864,0.29333 6.13587,-3.01925 13.5,-7.58789 5.68238,-3.52243 3.60584,-4.12903 19.95507,5.8418 4.64902,2.8331 4.4311,3.73762 2.40039,-9.94141 l -1.73828,-11.70898 7.22657,-8.19336 c 3.97362,-4.50753 7.29199,-8.3718 7.37304,-8.5918 0.0811,-0.21756 -4.39848,-1.14632 -9.95703,-2.06055 -5.55631,-0.9142 -10.26973,-1.84933 -10.47461,-2.07421 -0.20487,-0.22734 -2.29774,-4.87119 -4.65039,-10.32227 -2.3504,-5.44864 -4.48027,-10.16125 -4.73242,-10.4668 -0.0162,-0.0199 -0.0343,-0.0317 -0.0566,-0.0352 z m -63.01758,64.7207 a 300,300 0 0 0 -0.20703,0.58203 c 0.18616,0.0634 0.29687,0.0794 0.29687,0.0254 0,-0.0236 -0.0779,-0.51105 -0.0898,-0.60742 z M 429.81055,200 v 33.33398 33.33399 H 664.625 748.14258 A 300,300 0 0 0 732.8418,200 H 664.625 Z m -137.51172,23.08008 c -0.65894,0.0676 -2.31121,3.10847 -4.98242,9.16211 -2.30537,5.22375 -4.39688,10.06019 -4.64453,10.74219 -0.40074,1.10488 -1.56445,1.41382 -10.5,2.79492 -5.52704,0.85555 -10.18497,1.70387 -10.35157,1.88476 -0.16885,0.18333 2.95955,4.06078 6.95117,8.61719 4.93494,5.63197 7.25947,8.71956 7.26172,9.64844 0,0.75044 -0.74836,5.94668 -1.66015,11.54687 -0.9118,5.60263 -1.66016,10.32645 -1.66016,10.5 0,0.73822 1.4066,0.0253 9.9707,-5.04687 l 9.04493,-5.35938 4.18359,2.47071 c 2.30087,1.35666 6.28805,3.76855 8.86133,5.35742 6.6302,4.09442 6.30976,4.94317 3.88281,-10.30274 l -1.66992,-10.49218 7.59179,-8.25586 c 4.17399,-4.54175 7.46064,-8.39676 7.30079,-8.57032 -0.15759,-0.17111 -4.84951,-1.05844 -10.42383,-1.97265 -7.24031,-1.18555 -10.26566,-1.91717 -10.58985,-2.5625 -1.24049,-2.45665 -8.23828,-18.7978 -8.23828,-19.24024 0,-0.63677 -0.10848,-0.94441 -0.32812,-0.92187 z m 76.07812,0.0195 c -0.20487,-0.13689 -2.30932,4.27442 -4.67773,9.79883 -5.33342,12.4397 -3.74825,11.10901 -15.43945,12.97656 -5.455,0.87266 -10.04719,1.72683 -10.20704,1.90039 -0.15984,0.17355 3.11657,4.02321 7.2793,8.55273 l 7.57227,8.23633 -1.71094,11.59766 c -1.99018,13.4957 -2.14795,12.90104 2.66992,10.01172 2.06673,-1.23933 6.17486,-3.69362 9.13086,-5.45117 l 5.36914,-3.19532 6.2461,3.79493 c 7.71084,4.68108 12.10302,7.11215 12.35742,6.83593 0.10581,-0.11489 -0.53921,-5.04982 -1.4375,-10.96289 -0.89603,-5.91552 -1.62258,-11.17758 -1.61133,-11.69336 0.0113,-0.51577 3.2457,-4.58628 7.18555,-9.04492 3.93984,-4.46108 7.16542,-8.28148 7.16992,-8.49414 0.009,-0.54511 -1.34143,-0.82573 -11.42969,-2.37305 l -8.94922,-1.375 -4.57226,-10.43164 c -2.51475,-5.73708 -4.7427,-10.5467 -4.94532,-10.68359 z m -158.54687,0.12695 c -0.47973,0.0951 -0.92812,1.27811 -1.79883,3.34961 -0.86676,2.06554 -2.94173,6.87419 -4.60547,10.6875 l -3.02539,6.93164 -10.10351,1.60157 c -5.5563,0.88244 -10.23605,1.75124 -10.4004,1.92968 -0.16434,0.17844 3.01039,3.98422 7.06055,8.45508 l 7.36133,8.12891 -0.35742,3.42968 c -0.19586,1.8871 -0.93535,7.28227 -1.64453,11.99024 -0.71142,4.70553 -1.07787,8.55859 -0.81446,8.55859 0.26115,0 4.38943,-2.33972 9.17578,-5.19726 10.46423,-6.2504 8.11368,-6.24773 18.50586,-0.01 9.39484,5.64174 9.99731,5.88679 9.56055,3.85547 -0.70917,-3.28042 -3.04883,-19.4526 -3.04883,-21.05859 0,-1.46911 1.21727,-3.11365 7.05274,-9.52539 3.87906,-4.26064 7.12674,-7.97671 7.21679,-8.25782 0.17786,-0.55978 -3.06667,-1.23385 -13.63672,-2.83008 l -6.83789,-1.0332 -2.08984,-4.84765 c -1.15044,-2.66931 -3.22285,-7.48528 -4.60742,-10.70704 -1.67796,-3.8981 -2.3461,-5.57347 -2.96289,-5.45117 z m -55.0918,23.66406 a 300,300 0 0 0 -1.10937,6.5918 c 2.43438,-2.84277 4.40789,-5.19582 4.47461,-5.4043 0.12712,-0.39874 -0.49148,-0.66271 -3.36524,-1.1875 z m -2.8789,86.44336 a 300,300 0 0 0 15.08593,66.06446 h 282.77735 283.33007 a 300,300 0 0 0 15.08789,-66.06446 H 449.72266 Z m 48.54101,133.09961 a 300,300 0 0 0 60.29883,66.29883 h 189.02344 189.58007 a 300,300 0 0 0 60.1836,-66.13281 l -249.76367,-0.082 z" />
    <path
       id="path2"
       style="fill:#3c54b4;fill-opacity:1;stroke-width:2.3459"
       d="M 429.5332,0.69921875 A 300,300 0 0 0 291.76562,45.125 c 0.12297,0.148802 2.25065,4.963369 4.74219,10.732422 2.49898,5.781077 4.57442,10.550721 4.61719,10.599609 0.0405,0.04889 4.55794,0.819212 10.0332,1.708985 5.47751,0.892217 10.16853,1.763945 10.42969,1.9375 0.2589,0.173554 -1.61029,2.647841 -4.1543,5.498046 -2.54402,2.850206 -5.91068,6.66572 -7.48437,8.484376 l -2.86133,3.302734 1.62891,10.511719 c 2.29412,14.776579 3.02402,14.054319 -7.74414,7.642579 l -9.07813,-5.41016 -3.92187,2.17969 c -2.15453,1.19777 -6.39909,3.65304 -9.43164,5.45703 -3.03256,1.80399 -5.59761,3.19057 -5.70118,3.07813 -0.10356,-0.11245 0.58539,-4.9913 1.53321,-10.84571 2.19955,-13.595915 2.60571,-12.076543 -5.66797,-21.248044 -3.87905,-4.299753 -7.05469,-8.053845 -7.05469,-8.339844 0,-0.285999 3.79554,-1.125063 8.43555,-1.863281 13.3617,-2.121765 11.92274,-1.520203 13.68554,-5.714843 3.70057,-8.800579 7.3119,-16.845687 7.91016,-17.658204 a 300,300 0 0 0 -64.5918,54.046875 c 0.0808,0.484672 0.1422,0.847721 0.22852,1.375001 0.86677,5.2873 1.47674,9.79026 1.35742,10.00781 -0.10802,0.19696 -3.56444,-1.6483 -7.875,-4.17187 a 300,300 0 0 0 -53.27539,92.52734 c 0.012,0.0964 0.0898,0.5838 0.0898,0.60742 0,0.0539 -0.11078,0.038 -0.29687,-0.0254 a 300,300 0 0 0 -12.58008,47.3457 c 2.87376,0.52479 3.49236,0.78876 3.36524,1.1875 -0.0667,0.20848 -2.04023,2.56153 -4.47461,5.4043 A 300,300 0 0 0 150,300 a 300,300 0 0 0 1.8457,33.22852 l 63.28516,-0.0449 214.40234,-0.15234 V 166.66797 Z M 368.49023,45.505859 c 0.21838,0.241998 2.38165,4.988733 4.8086,10.544922 2.42694,5.558634 4.50958,10.210289 4.6289,10.339844 0.11707,0.129555 4.55853,0.929127 9.86719,1.777344 5.31091,0.848218 10.01412,1.678991 10.45313,1.847656 0.53807,0.207777 -1.7052,3.033545 -6.89453,8.677734 l -7.69532,8.373047 1.55274,10.371094 c 0.85551,5.70286 1.69579,11.16336 1.86914,12.12891 l 0.31445,1.75781 -4.92969,-2.91797 c -16.41902,-9.726385 -12.80157,-9.316772 -23.73632,-2.70703 -5.69364,3.44176 -8.9059,5.07433 -9.01172,4.57812 -0.0878,-0.42289 0.5846,-5.74638 1.49414,-11.828121 l 1.65429,-11.060547 -1.75976,-2.101563 c -0.96582,-1.156216 -4.36378,-4.998066 -7.54492,-8.535156 -3.97586,-4.41953 -5.5376,-6.52903 -4.98828,-6.744141 0.74069,-0.290886 18.8225,-3.341796 19.80859,-3.341796 0.24314,0 2.5296,-4.858372 5.07812,-10.800782 2.54852,-5.942409 4.81062,-10.603818 5.03125,-10.359375 z m 20.25,88.429691 c 0.11257,0 1.67745,3.3582 3.47852,7.46484 1.80107,4.1042 3.87349,8.93772 4.60742,10.73438 l 1.33203,3.27148 6.56055,1.05859 c 3.60665,0.58177 8.39965,1.3599 10.64648,1.72657 l 4.08789,0.66797 -7.52539,8.4082 c -4.14022,4.62486 -7.53591,8.73875 -7.54492,9.14453 -0.0113,0.40333 0.73184,5.78193 1.65039,11.94922 0.9208,6.16974 1.60283,11.29041 1.51953,11.38086 -0.0833,0.0904 -3.26194,-1.70957 -7.06445,-4 -3.80026,-2.29043 -7.9896,-4.76813 -9.30664,-5.50391 l -2.39844,-1.33789 -6.17773,3.55859 c -3.39727,1.95555 -7.54376,4.43325 -9.21875,5.50391 -2.2626,1.44955 -3.08622,1.73221 -3.2168,1.11133 -0.14633,-0.70155 1.9806,-15.88321 3.01172,-21.48828 0.28141,-1.53755 -0.40313,-2.48087 -7.3125,-10.04883 -4.19199,-4.59553 -7.51144,-8.45298 -7.38086,-8.57031 0.13283,-0.11978 4.71976,-0.9525 10.19727,-1.84961 11.65293,-1.9091 10.05685,-0.55624 15.49609,-13.12305 2.39543,-5.53175 4.44603,-10.05859 4.55859,-10.05859 z m -76.51171,0.0605 c 0.12382,0.13689 2.22195,4.81098 4.66015,10.38672 5.41447,12.38593 3.5123,10.80132 15.28906,12.73242 5.47526,0.8971 10.06444,1.73179 10.19727,1.85157 0.13282,0.11733 -3.18856,3.97478 -7.38281,8.57031 -6.90711,7.56796 -7.59421,8.51128 -7.31055,10.04883 1.03112,5.60507 3.1603,20.78673 3.01172,21.48828 -0.12833,0.62088 -0.95615,0.33822 -3.21875,-1.11133 -1.67274,-1.07066 -5.82148,-3.54836 -9.21875,-5.50391 l -6.17578,-3.55859 -2.39649,1.33789 c -1.31928,0.73578 -5.50803,3.21348 -9.31054,5.50391 -3.80026,2.29043 -6.9792,4.09044 -7.0625,4 -0.0833,-0.0905 0.59903,-5.21112 1.51757,-11.38086 0.91855,-6.16729 1.66136,-11.54589 1.65235,-11.94922 -0.0113,-0.40578 -3.40501,-4.51967 -7.54297,-9.14453 l -7.52734,-8.4082 4.08593,-0.66797 c 2.24909,-0.36667 7.04149,-1.1448 10.65039,-1.72657 l 6.56055,-1.05859 1.33203,-3.27148 c 2.94475,-7.23062 7.97333,-18.3709 8.18946,-18.13868 z m -81.68555,0.2461 c 0.0224,0.003 0.0405,0.0153 0.0566,0.0352 0.25215,0.30555 2.38202,5.01816 4.73242,10.4668 2.35265,5.45108 4.44552,10.09493 4.65039,10.32227 0.20488,0.22488 4.9183,1.16001 10.47461,2.07421 5.55855,0.91423 10.03808,1.84299 9.95703,2.06055 -0.0811,0.22 -3.39942,4.08427 -7.37304,8.5918 l -7.22657,8.19336 1.73828,11.70898 c 2.03071,13.67903 2.24863,12.77451 -2.40039,9.94141 -16.34923,-9.97083 -14.27269,-9.36423 -19.95507,-5.8418 -7.36413,4.56864 -13.26136,7.88122 -13.5,7.58789 -0.12833,-0.154 0.56588,-5.41801 1.54296,-11.69531 l 1.77344,-11.41016 -7.38086,-8.49218 c -8.53708,-9.81928 -8.1036,-8.95741 -4.75586,-9.44141 1.44536,-0.21022 6.08479,-0.96445 10.31055,-1.67578 l 7.68555,-1.29297 2.62109,-6.06641 c 1.44086,-3.3342 3.52711,-8.20964 4.63477,-10.83007 1.06798,-2.52769 2.07858,-4.28796 2.41406,-4.23633 z m 137.83398,88.85937 c 0.20262,0.13689 2.43057,4.94456 4.94532,10.68164 l 4.57226,10.4336 8.94922,1.37304 c 10.08826,1.54732 11.4387,1.82794 11.42969,2.37305 -0.005,0.21266 -3.23008,4.03306 -7.16992,8.49414 -3.93985,4.45864 -7.17429,8.52915 -7.18555,9.04492 -0.0113,0.51578 0.7153,5.77784 1.61133,11.69336 0.89829,5.91307 1.54331,10.84996 1.4375,10.96485 -0.2544,0.27622 -4.64658,-2.15681 -12.35742,-6.83789 l -6.2461,-3.79297 -5.36914,3.19336 c -2.956,1.75755 -7.06413,4.21184 -9.13086,5.45117 -4.81787,2.88932 -4.6601,3.48398 -2.66992,-10.01172 l 1.71094,-11.5957 -7.57227,-8.23829 c -4.16273,-4.52952 -7.43914,-8.37918 -7.2793,-8.55273 0.15985,-0.17356 4.75204,-1.02773 10.20704,-1.90039 11.6912,-1.86755 10.10603,-0.53686 15.43945,-12.97656 2.36841,-5.52441 4.47286,-9.93377 4.67773,-9.79688 z m -158.54687,0.125 c 0.61679,-0.1223 1.28493,1.55503 2.96289,5.45313 1.38457,3.22176 3.45698,8.03577 4.60742,10.70508 l 2.08984,4.84765 6.83789,1.03516 c 10.57005,1.59622 13.81458,2.26834 13.63672,2.82812 -0.09,0.28111 -3.33773,3.99913 -7.21679,8.25977 -5.83547,6.41174 -7.05274,8.05433 -7.05274,9.52344 0,1.60599 2.33966,17.77817 3.04883,21.05859 0.43676,2.03132 -0.16571,1.78627 -9.56055,-3.85547 -10.39218,-6.23819 -8.04163,-6.24086 -18.50586,0.01 -4.78635,2.85754 -8.91463,5.19726 -9.17578,5.19726 -0.26341,0 0.10304,-3.85306 0.81446,-8.55859 0.70918,-4.70797 1.44867,-10.10314 1.64453,-11.99024 l 0.35742,-3.42968 -7.36133,-8.12891 c -4.05016,-4.47086 -7.22489,-8.27664 -7.06055,-8.45508 0.16435,-0.17844 4.84409,-1.04724 10.4004,-1.92968 l 10.10351,-1.60157 3.02539,-6.93164 c 1.66374,-3.81331 3.73871,-8.62196 4.60547,-10.6875 0.87071,-2.0715 1.3191,-3.25449 1.79883,-3.34961 z m 82.63672,0.31446 c 0.10479,0.0302 0.16015,0.17791 0.16015,0.46093 0,0.44244 6.99779,16.78359 8.23828,19.24024 0.32419,0.64533 3.34954,1.37695 10.58985,2.5625 5.57432,0.91421 10.26624,1.80154 10.42383,1.97265 0.15985,0.17356 -3.1268,4.02857 -7.30079,8.57032 l -7.59179,8.25781 1.66992,10.49023 c 2.42695,15.24591 2.74739,14.39911 -3.88281,10.30469 -2.57328,-1.58887 -6.56046,-4.00271 -8.86133,-5.35937 l -4.18359,-2.47071 -9.04493,5.36133 c -8.5641,5.07219 -9.9707,5.78314 -9.9707,5.04492 0,-0.17355 0.74836,-4.89737 1.66016,-10.5 0.91179,-5.60019 1.66015,-10.79643 1.66015,-11.54687 -0.002,-0.92888 -2.32678,-4.01647 -7.26172,-9.64844 -3.99162,-4.55641 -7.12002,-8.43386 -6.95117,-8.61719 0.1666,-0.18089 4.82453,-1.02921 10.35157,-1.88476 8.93556,-1.3811 10.09927,-1.69005 10.5,-2.79492 3.22771,-8.88986 8.78195,-19.73494 9.79492,-19.44336 z" />
    <path
       id="path3"
       style="fill:#ed7d7a;fill-opacity:1;stroke-width:2.3459"
       d="m 638.76562,66.832031 -209.23242,0.132813 209.72657,0.269531 a 300,300 0 0 0 -0.49415,-0.402344 z m 60.6504,66.458989 -34.79102,0.0449 -235.0918,0.30078 234.95118,0.14844 35.27539,0.0234 a 300,300 0 0 0 -0.34375,-0.51757 z m 33.25,66.21484 -68.18164,0.043 -234.95118,0.14844 235.0918,0.30078 68.24609,0.0879 a 300,300 0 0 0 -0.20507,-0.58008 z m 15.46093,67.0332 c -28.23421,0.0441 -50.99588,0.0871 -83.50195,0.12891 l -235.0918,0.30078 234.95118,0.14844 83.71484,0.0527 a 300,300 0 0 0 -0.0723,-0.63086 z m -83.77929,66.19336 c -129.30118,0 -235.0918,0.20428 -235.0918,0.45117 0,0.24689 105.91712,0.44922 235.36914,0.44922 h 83.48242 a 300,300 0 0 0 0.10156,-0.90039 z m -497.40235,66.66602 a 300,300 0 0 0 0.24805,0.69922 C 245.17163,400.03961 341.60746,400 450.36914,400 H 732.8418 a 300,300 0 0 0 0.21093,-0.60156 H 449.99609 Z m 33.21094,66.66601 a 300,300 0 0 0 0.28906,0.43555 l 249.69141,0.16602 249.19531,0.16601 a 300,300 0 0 0 0.51172,-0.76758 H 450 Z m 60.54297,66.66797 a 300,300 0 0 0 0.74023,0.60156 H 450 638.56055 a 300,300 0 0 0 0.74218,-0.60156 H 450.00391 Z m 170.32031,66.66602 a 300,300 0 0 0 9.55078,0.45312 l 9.29102,-0.004 9.77148,-0.004 a 300,300 0 0 0 9.3418,-0.44531 H 450 Z" />
  </g>
</svg>
