<?xml version="1.0" encoding="UTF-8" standalone="no"?>
<svg
   xmlns:osb="http://www.openswatchbook.org/uri/2009/osb"
   xmlns:dc="http://purl.org/dc/elements/1.1/"
   xmlns:cc="http://creativecommons.org/ns#"
   xmlns:rdf="http://www.w3.org/1999/02/22-rdf-syntax-ns#"
   xmlns:svg="http://www.w3.org/2000/svg"
   xmlns="http://www.w3.org/2000/svg"
   width="500"
   height="500"
   viewBox="0 0 132.29166 132.29167"
   version="1.1"
   id="svg870">
  <defs
     id="defs864">
    <linearGradient
       id="linearGradient833"
       osb:paint="solid">
      <stop
         style="stop-color:#000000;stop-opacity:1;"
         offset="0"
         id="stop831" />
    </linearGradient>
  </defs>
  <metadata
     id="metadata867">
    <rdf:RDF>
      <cc:Work
         rdf:about="">
        <dc:format>image/svg+xml</dc:format>
        <dc:type
           rdf:resource="http://purl.org/dc/dcmitype/StillImage" />
        <dc:title></dc:title>
      </cc:Work>
    </rdf:RDF>
  </metadata>
  <g
     id="layer1"
     transform="translate(0,-164.70832)">
    <path
       id="path837"
       style="fill-opacity:1;fill-rule:nonzero;stroke:none;stroke-width:1.99937011;stroke-miterlimit:4;stroke-dasharray:none;stroke-opacity:1;fill:#00ffff"
       d="M 106.74023 50 C 75.305915 50 50 75.305904 50 106.74023 L 50 393.25977 C 50 424.6941 75.305915 450 106.74023 450 L 393.25977 450 C 424.6941 450 450 424.6941 450 393.25977 L 450 106.74023 C 450 75.305904 424.6941 50 393.25977 50 L 106.74023 50 z M 206.80078 126.06445 C 208.11465 126.04792 209.43833 126.09869 210.76562 126.2207 C 247.99413 126.30159 285.23305 126.05915 322.45508 126.34375 C 339.38532 127.1435 352.11448 146.60718 342.00391 159.66602 C 338.47599 169.37891 327.97075 176.52089 316.34766 174.75781 L 234.80078 171.33789 L 234.80078 227.04883 C 262.06664 226.51217 289.33171 225.69624 316.59766 225.33594 C 332.24983 225.96935 342.77747 241.52388 337.83984 254.49023 C 334.32956 265.58859 321.08953 271.53162 308.89453 269.89062 C 284.19654 269.34127 259.49878 268.7915 234.80078 268.24219 L 234.80078 330.23047 C 265.76789 329.75538 296.73647 329.03268 327.70312 328.71289 C 343.52388 329.42552 354.10451 345.04144 349.24023 358.16797 C 346.03333 369.02141 333.32642 375.14164 321.36523 373.77734 C 282.31215 373.67152 243.24552 373.99092 204.20117 373.61523 C 183.35112 372.12274 166.75819 353.69471 168.98242 335.10938 C 169.01152 276.60025 168.9238 218.09044 169.02539 159.58203 C 169.40381 141.72344 187.09268 126.31248 206.80078 126.06445 z "
       transform="matrix(0.26458333,0,0,0.26458333,0,164.70832)" />
  </g>
</svg>
