<?xml version="1.0" encoding="UTF-8" standalone="no"?>
<svg
   xmlns:dc="http://purl.org/dc/elements/1.1/"
   xmlns:cc="http://creativecommons.org/ns#"
   xmlns:rdf="http://www.w3.org/1999/02/22-rdf-syntax-ns#"
   xmlns:svg="http://www.w3.org/2000/svg"
   xmlns="http://www.w3.org/2000/svg"
   width="500"
   height="500"
   viewBox="0 0 132.29166 132.29167"
   version="1.1"
   id="svg870">
  <defs
     id="defs864" />
  <metadata
     id="metadata867">
    <rdf:RDF>
      <cc:Work
         rdf:about="">
        <dc:format>image/svg+xml</dc:format>
        <dc:type
           rdf:resource="http://purl.org/dc/dcmitype/StillImage" />
        <dc:title></dc:title>
      </cc:Work>
    </rdf:RDF>
  </metadata>
  <g
     id="layer1"
     transform="translate(0,-164.70832)">
    <path
       id="rect40"
       style="fill-opacity:1;stroke:none;stroke-width:11.0764;stroke-linecap:butt;stroke-linejoin:round;stroke-miterlimit:4;stroke-dasharray:none;stroke-opacity:1;paint-order:normal;fill:#00ffff"
       d="M 106.74023 50 C 75.305915 50 50 75.305904 50 106.74023 L 50 393.25977 C 50 424.6941 75.305915 450 106.74023 450 L 393.25977 450 C 424.6941 450 450 424.6941 450 393.25977 L 450 106.74023 C 450 75.305904 424.6941 50 393.25977 50 L 106.74023 50 z M 161.93555 125.57812 C 173.78343 125.42826 182.86898 132.22324 189.25195 146 C 195.65695 159.82302 196.8057 162.47877 201.7207 174.80078 C 203.69471 179.75079 205.92101 185.15079 206.66602 186.80078 C 207.41101 188.45077 208.73919 191.60079 209.61719 193.80078 C 211.83319 199.35181 213.33443 202.87697 215.02344 206.50195 C 215.81843 208.20796 216.46875 209.71065 216.46875 209.8418 C 216.46875 210.06679 218.37609 214.28601 222.87109 224 C 223.94009 226.31001 225.25402 229.27961 225.79102 230.59961 C 226.32702 231.91961 227.94572 235.8804 229.38672 239.40039 C 230.82872 242.92042 232.73033 247.60079 233.61133 249.80078 C 235.62133 254.82479 240.04261 265.18458 245.47461 277.59961 C 247.35061 281.88661 248.58892 283.22264 250.91992 283.47852 C 254.50292 283.87151 255.04045 283.103 261.06445 269 C 262.00445 266.80001 263.62688 263.11075 264.67188 260.80078 C 265.71688 258.49077 268.60484 251.56042 271.08984 245.40039 C 277.93284 228.43141 278.82589 226.26738 279.33789 225.40039 C 279.59689 224.96038 280.83484 222.2604 282.08984 219.40039 C 283.34384 216.54038 285.31385 212.12963 286.46484 209.59961 C 289.86084 202.1406 292.45418 196.04323 293.86719 192.19922 C 296.00019 186.39523 298.27092 180.88461 300.29492 176.59961 C 302.21092 172.54062 305.36409 165.08405 307.12109 160.45508 C 317.09609 134.17905 325.23114 125.84022 340.86914 125.85156 C 353.49614 125.86158 363.09294 131.13461 367.71094 140.59961 L 369.46875 144.19922 L 369.45312 149.19922 C 369.43712 154.11722 369.40661 154.27262 367.72461 158.59961 C 366.13661 162.6846 365.35335 164.41323 360.65234 174.19922 C 359.10035 177.4292 357.49508 180.91801 352.45508 192 C 351.60408 193.87 350.37275 196.75036 349.71875 198.40039 C 349.06475 200.05038 347.42336 203.83075 346.06836 206.80078 C 344.71336 209.77077 342.73197 214.27077 341.66797 216.80078 C 338.57697 224.14879 336.1235 229.6141 335.3125 230.95508 C 334.8995 231.6391 333.29976 234.89924 331.75977 238.19922 C 330.21976 241.49924 327.65459 246.99039 326.05859 250.40039 C 324.46259 253.81039 321.03731 261.54961 318.44531 267.59961 C 311.50231 283.8086 309.39967 288.53078 305.88867 295.80078 C 301.43067 305.03281 300.06836 307.92936 300.06836 308.1875 C 300.06836 308.34152 298.97182 310.83737 297.63281 313.73438 C 292.07182 325.76038 291.20114 327.73499 288.24414 335 C 274.97614 367.59699 268.21475 374.30294 249.46875 373.46094 C 232.85875 372.71493 228.81169 368.12402 213.80469 333 C 211.92469 328.60003 209.032 322.11963 207.375 318.59961 C 205.718 315.07962 203.68633 310.57959 202.86133 308.59961 C 200.95233 304.02162 198.98859 299.7892 192.93359 287.19922 C 192.03359 285.32922 190.64756 282.27039 189.85156 280.40039 C 189.05556 278.53039 187.44925 274.74998 186.28125 272 C 184.16125 267.01 181.01063 259.8566 177.51562 252.09961 C 176.49962 249.84463 174.88092 246.2446 173.91992 244.09961 C 172.95892 241.95458 170.97091 237.80305 169.50391 234.87305 C 168.03591 231.94308 166.48655 228.66106 166.06055 227.58008 C 165.63455 226.49906 164.651 224.35349 163.875 222.8125 C 162.405 219.89247 161.87204 218.67802 152.99805 198 C 150.02504 191.07001 147.07536 184.40923 146.44336 183.19922 C 144.59036 179.64922 135.46794 160.0379 134.33594 157.16992 C 129.06794 143.81689 138.44336 129.89102 155.06836 126.375 C 157.45227 125.87109 159.74149 125.60588 161.93555 125.57812 z "
       transform="matrix(0.26458333,0,0,0.26458333,0,164.70832)" />
  </g>
</svg>
